<svg xmlns="http://www.w3.org/2000/svg" viewBox="0 0 350 80" fill="none">
  <!-- Scales of Justice Icon -->
  <g transform="translate(10, 15)" fill="#003366">
    <path d="M25 5C25 2.23858 27.2386 0 30 0C32.7614 0 35 2.23858 35 5H55C57.7614 5 60 7.23858 60 10C60 12.7614 57.7614 15 55 15H50.9155C52.7554 18.2393 55 23.3611 55 30C55 38.2843 48.2843 45 40 45C31.7157 45 25 38.2843 25 30C25 23.3611 27.2446 18.2393 29.0845 15H5C2.23858 15 0 12.7614 0 10C0 7.23858 2.23858 5 5 5H25ZM30 5V15H30V5ZM10 30C10 35.5228 14.4772 40 20 40C25.5228 40 30 35.5228 30 30C30 24.4772 25.5228 20 20 20C14.4772 20 10 24.4772 10 30ZM40 30C40 35.5228 44.4772 40 50 40C55.5228 40 60 35.5228 60 30C60 24.4772 55.5228 20 50 20C44.4772 20 40 24.4772 40 30Z" />
    <rect x="28" y="15" width="4" height="40" rx="2" />
    <rect x="20" y="55" width="20" height="4" rx="2" />
  </g>

  <!-- Main Text -->
  <text x="80" y="40" font-family="Times New Roman, serif" font-weight="bold" font-size="26" fill="#003366" letter-spacing="1">LEGAL KHAN</text>
  
  <!-- Subtext -->
  <text x="82" y="62" font-family="Arial, sans-serif" font-size="11" font-weight="bold" letter-spacing="5" fill="#C5A059">ASSOCIATES</text>
</svg>
